<?xml version="1.0" encoding="UTF-8" standalone="no"?>
<!-- Created with Inkscape (http://www.inkscape.org/) -->

<svg
   xmlns:osb="http://www.openswatchbook.org/uri/2009/osb"
   xmlns:dc="http://purl.org/dc/elements/1.1/"
   xmlns:cc="http://creativecommons.org/ns#"
   xmlns:rdf="http://www.w3.org/1999/02/22-rdf-syntax-ns#"
   xmlns:svg="http://www.w3.org/2000/svg"
   xmlns="http://www.w3.org/2000/svg"
   xmlns:sodipodi="http://sodipodi.sourceforge.net/DTD/sodipodi-0.dtd"
   xmlns:inkscape="http://www.inkscape.org/namespaces/inkscape"
   width="38"
   height="38"
   id="svg2993"
   version="1.1"
   inkscape:version="0.48.0 r9654"
   sodipodi:docname="wifi_timer_back_on.svg"
   inkscape:export-filename="/home/laurent/dev/workspace/android-wifi-timer/graphics/wifi_timer_back_on.png"
   inkscape:export-xdpi="90"
   inkscape:export-ydpi="90">
  <defs
     id="defs2995">
    <inkscape:path-effect
       effect="construct_grid"
       id="path-effect3928"
       is_visible="true"
       nr_x="5"
       nr_y="5" />
    <marker
       inkscape:stockid="TriangleOutM"
       orient="auto"
       refY="0"
       refX="0"
       id="TriangleOutM"
       style="overflow:visible">
      <path
         id="path5764"
         d="m 5.77,0 -8.65,5 0,-10 8.65,5 z"
         style="fill-rule:evenodd;stroke:#000000;stroke-width:1pt;marker-start:none"
         transform="scale(0.4,0.4)"
         inkscape:connector-curvature="0" />
    </marker>
    <marker
       inkscape:stockid="TriangleOutS"
       orient="auto"
       refY="0"
       refX="0"
       id="TriangleOutS"
       style="overflow:visible">
      <path
         id="path5767"
         d="m 5.77,0 -8.65,5 0,-10 8.65,5 z"
         style="fill-rule:evenodd;stroke:#000000;stroke-width:1pt;marker-start:none"
         transform="scale(0.2,0.2)"
         inkscape:connector-curvature="0" />
    </marker>
    <marker
       inkscape:stockid="DiamondSend"
       orient="auto"
       refY="0"
       refX="0"
       id="DiamondSend"
       style="overflow:visible">
      <path
         id="path5722"
         d="M 0,-7.0710768 -7.0710894,0 0,7.0710589 7.0710462,0 0,-7.0710768 z"
         style="fill-rule:evenodd;stroke:#000000;stroke-width:1pt;marker-start:none"
         transform="matrix(0.2,0,0,0.2,-1.2,0)"
         inkscape:connector-curvature="0" />
    </marker>
    <marker
       inkscape:stockid="Arrow2Mend"
       orient="auto"
       refY="0"
       refX="0"
       id="Arrow2Mend"
       style="overflow:visible">
      <path
         id="path5645"
         style="font-size:12px;fill-rule:evenodd;stroke-width:0.625;stroke-linejoin:round"
         d="M 8.7185878,4.0337352 -2.2072895,0.01601326 8.7185884,-4.0017078 c -1.7454984,2.3720609 -1.7354408,5.6174519 -6e-7,8.035443 z"
         transform="scale(-0.6,-0.6)"
         inkscape:connector-curvature="0" />
    </marker>
    <marker
       inkscape:stockid="TriangleInS"
       orient="auto"
       refY="0"
       refX="0"
       id="TriangleInS"
       style="overflow:visible">
      <path
         id="path5758"
         d="m 5.77,0 -8.65,5 0,-10 8.65,5 z"
         style="fill-rule:evenodd;stroke:#000000;stroke-width:1pt;marker-start:none"
         transform="scale(-0.2,-0.2)"
         inkscape:connector-curvature="0" />
    </marker>
    <marker
       inkscape:stockid="Arrow2Lend"
       orient="auto"
       refY="0"
       refX="0"
       id="Arrow2Lend"
       style="overflow:visible">
      <path
         id="path5639"
         style="font-size:12px;fill-rule:evenodd;stroke-width:0.625;stroke-linejoin:round"
         d="M 8.7185878,4.0337352 -2.2072895,0.01601326 8.7185884,-4.0017078 c -1.7454984,2.3720609 -1.7354408,5.6174519 -6e-7,8.035443 z"
         transform="matrix(-1.1,0,0,-1.1,-1.1,0)"
         inkscape:connector-curvature="0" />
    </marker>
    <marker
       inkscape:stockid="TriangleOutL"
       orient="auto"
       refY="0"
       refX="0"
       id="TriangleOutL"
       style="overflow:visible">
      <path
         id="path5761"
         d="m 5.77,0 -8.65,5 0,-10 8.65,5 z"
         style="fill-rule:evenodd;stroke:#000000;stroke-width:1pt;marker-start:none"
         transform="scale(0.8,0.8)"
         inkscape:connector-curvature="0" />
    </marker>
    <marker
       inkscape:stockid="Arrow1Lend"
       orient="auto"
       refY="0"
       refX="0"
       id="Arrow1Lend"
       style="overflow:visible">
      <path
         id="path5621"
         d="M 0,0 5,-5 -12.5,0 5,5 0,0 z"
         style="fill-rule:evenodd;stroke:#000000;stroke-width:1pt;marker-start:none"
         transform="matrix(-0.8,0,0,-0.8,-10,0)"
         inkscape:connector-curvature="0" />
    </marker>
    <marker
       inkscape:stockid="Tail"
       orient="auto"
       refY="0"
       refX="0"
       id="Tail"
       style="overflow:visible">
      <g
         id="g5654"
         transform="scale(-1.2,-1.2)">
        <path
           id="path5656"
           d="M -3.8048674,-3.9585227 0.54352094,0"
           style="fill:none;stroke:#000000;stroke-width:0.80000001;stroke-linecap:round;marker-start:none;marker-end:none"
           inkscape:connector-curvature="0" />
        <path
           id="path5658"
           d="M -1.2866832,-3.9585227 3.0617053,0"
           style="fill:none;stroke:#000000;stroke-width:0.80000001;stroke-linecap:round;marker-start:none;marker-end:none"
           inkscape:connector-curvature="0" />
        <path
           id="path5660"
           d="M 1.3053582,-3.9585227 5.6537466,0"
           style="fill:none;stroke:#000000;stroke-width:0.80000001;stroke-linecap:round;marker-start:none;marker-end:none"
           inkscape:connector-curvature="0" />
        <path
           id="path5662"
           d="M -3.8048674,4.1775838 0.54352094,0.21974226"
           style="fill:none;stroke:#000000;stroke-width:0.80000001;stroke-linecap:round;marker-start:none;marker-end:none"
           inkscape:connector-curvature="0" />
        <path
           id="path5664"
           d="M -1.2866832,4.1775838 3.0617053,0.21974226"
           style="fill:none;stroke:#000000;stroke-width:0.80000001;stroke-linecap:round;marker-start:none;marker-end:none"
           inkscape:connector-curvature="0" />
        <path
           id="path5666"
           d="M 1.3053582,4.1775838 5.6537466,0.21974226"
           style="fill:none;stroke:#000000;stroke-width:0.80000001;stroke-linecap:round;marker-start:none;marker-end:none"
           inkscape:connector-curvature="0" />
      </g>
    </marker>
    <marker
       inkscape:stockid="Arrow1Lstart"
       orient="auto"
       refY="0"
       refX="0"
       id="Arrow1Lstart"
       style="overflow:visible">
      <path
         id="path5618"
         d="M 0,0 5,-5 -12.5,0 5,5 0,0 z"
         style="fill-rule:evenodd;stroke:#000000;stroke-width:1pt;marker-start:none"
         transform="matrix(0.8,0,0,0.8,10,0)"
         inkscape:connector-curvature="0" />
    </marker>
    <linearGradient
       id="linearGradient3781"
       osb:paint="solid">
      <stop
         style="stop-color:#000000;stop-opacity:1;"
         offset="0"
         id="stop3783" />
    </linearGradient>
  </defs>
  <sodipodi:namedview
     id="base"
     pagecolor="#ffffff"
     bordercolor="#666666"
     borderopacity="1.0"
     inkscape:pageopacity="0.0"
     inkscape:pageshadow="2"
     inkscape:zoom="4"
     inkscape:cx="7.1173281"
     inkscape:cy="8.3226978"
     inkscape:current-layer="layer1"
     showgrid="false"
     inkscape:document-units="px"
     inkscape:grid-bbox="true"
     showguides="false"
     inkscape:window-width="1222"
     inkscape:window-height="776"
     inkscape:window-x="58"
     inkscape:window-y="-5"
     inkscape:window-maximized="1"
     inkscape:showpageshadow="false"
     borderlayer="false"
     showborder="true">
    <inkscape:grid
       type="xygrid"
       id="grid3835"
       empspacing="5"
       visible="true"
       enabled="true"
       snapvisiblegridlinesonly="true" />
  </sodipodi:namedview>
  <metadata
     id="metadata2998">
    <rdf:RDF>
      <cc:Work
         rdf:about="">
        <dc:format>image/svg+xml</dc:format>
        <dc:type
           rdf:resource="http://purl.org/dc/dcmitype/StillImage" />
        <dc:title></dc:title>
      </cc:Work>
    </rdf:RDF>
  </metadata>
  <g
     id="layer1"
     inkscape:label="Layer 1"
     inkscape:groupmode="layer"
     transform="translate(0,-26)">
    <g
       id="g6533"
       style="fill:none"
       transform="translate(-84.628241,-93.954965)">
      <path
         transform="matrix(0.18750002,0,0,0.18750002,83.624998,8.8977273)"
         d="m 93.636366,0.54545456 c 0,3.21329314 -2.604889,5.81818204 -5.818182,5.81818204 -3.213293,0 -5.818182,-2.6048889 -5.818182,-5.81818204 0,-3.21329316 2.604889,-5.81818196 5.818182,-5.81818196 3.213293,0 5.818182,2.6048888 5.818182,5.81818196 z"
         sodipodi:ry="5.818182"
         sodipodi:rx="5.818182"
         sodipodi:cy="0.54545456"
         sodipodi:cx="87.818184"
         id="path6427"
         style="opacity:0.9;fill:none;stroke:#000000;stroke-width:10.66666508;stroke-miterlimit:4;stroke-opacity:1;stroke-dasharray:none"
         sodipodi:type="arc" />
      <path
         transform="matrix(0.18750002,0,0,0.18750002,103.44318,28.897727)"
         d="m 93.636366,0.54545456 c 0,3.21329314 -2.604889,5.81818204 -5.818182,5.81818204 -3.213293,0 -5.818182,-2.6048889 -5.818182,-5.81818204 0,-3.21329316 2.604889,-5.81818196 5.818182,-5.81818196 3.213293,0 5.818182,2.6048888 5.818182,5.81818196 z"
         sodipodi:ry="5.818182"
         sodipodi:rx="5.818182"
         sodipodi:cy="0.54545456"
         sodipodi:cx="87.818184"
         id="path6427-2"
         style="opacity:0.9;fill:none;stroke:#000000;stroke-width:10.66666508;stroke-miterlimit:4;stroke-opacity:1;stroke-dasharray:none"
         sodipodi:type="arc" />
      <path
         transform="matrix(0.18750002,0,0,0.18750002,93.44318,11.897727)"
         d="m 93.636366,0.54545456 c 0,3.21329314 -2.604889,5.81818204 -5.818182,5.81818204 -3.213293,0 -5.818182,-2.6048889 -5.818182,-5.81818204 0,-3.21329316 2.604889,-5.81818196 5.818182,-5.81818196 3.213293,0 5.818182,2.6048888 5.818182,5.81818196 z"
         sodipodi:ry="5.818182"
         sodipodi:rx="5.818182"
         sodipodi:cy="0.54545456"
         sodipodi:cx="87.818184"
         id="path6427-69"
         style="opacity:0.9;fill:none;stroke:#000000;stroke-width:10.66666508;stroke-miterlimit:4;stroke-opacity:1;stroke-dasharray:none"
         sodipodi:type="arc" />
      <path
         transform="matrix(0.18750002,0,0,0.18750002,100.625,18.897727)"
         d="m 93.636366,0.54545456 c 0,3.21329314 -2.604889,5.81818204 -5.818182,5.81818204 -3.213293,0 -5.818182,-2.6048889 -5.818182,-5.81818204 0,-3.21329316 2.604889,-5.81818196 5.818182,-5.81818196 3.213293,0 5.818182,2.6048888 5.818182,5.81818196 z"
         sodipodi:ry="5.818182"
         sodipodi:rx="5.818182"
         sodipodi:cy="0.54545456"
         sodipodi:cx="87.818184"
         id="path6427-9"
         style="opacity:0.9;fill:none;stroke:#000000;stroke-width:10.66666508;stroke-miterlimit:4;stroke-opacity:1;stroke-dasharray:none"
         sodipodi:type="arc" />
      <path
         sodipodi:type="arc"
         style="opacity:0.9;fill:none;stroke:#000000;stroke-width:10.66666508;stroke-miterlimit:4;stroke-opacity:1;stroke-dasharray:none"
         id="path6484"
         sodipodi:cx="87.818184"
         sodipodi:cy="0.54545456"
         sodipodi:rx="5.818182"
         sodipodi:ry="5.818182"
         d="m 93.636366,0.54545456 c 0,3.21329314 -2.604889,5.81818204 -5.818182,5.81818204 -3.213293,0 -5.818182,-2.6048889 -5.818182,-5.81818204 0,-3.21329316 2.604889,-5.81818196 5.818182,-5.81818196 3.213293,0 5.818182,2.6048888 5.818182,5.81818196 z"
         transform="matrix(-0.18750002,0,0,0.18750002,96.73864,28.897727)" />
      <path
         sodipodi:type="arc"
         style="opacity:0.9;fill:none;stroke:#000000;stroke-width:10.66666508;stroke-miterlimit:4;stroke-opacity:1;stroke-dasharray:none"
         id="path6486"
         sodipodi:cx="87.818184"
         sodipodi:cy="0.54545456"
         sodipodi:rx="5.818182"
         sodipodi:ry="5.818182"
         d="m 93.636366,0.54545456 c 0,3.21329314 -2.604889,5.81818204 -5.818182,5.81818204 -3.213293,0 -5.818182,-2.6048889 -5.818182,-5.81818204 0,-3.21329316 2.604889,-5.81818196 5.818182,-5.81818196 3.213293,0 5.818182,2.6048888 5.818182,5.81818196 z"
         transform="matrix(-0.18750002,0,0,0.18750002,106.73864,11.897727)" />
      <path
         sodipodi:type="arc"
         style="opacity:0.9;fill:none;stroke:#000000;stroke-width:10.66666508;stroke-miterlimit:4;stroke-opacity:1;stroke-dasharray:none"
         id="path6488"
         sodipodi:cx="87.818184"
         sodipodi:cy="0.54545456"
         sodipodi:rx="5.818182"
         sodipodi:ry="5.818182"
         d="m 93.636366,0.54545456 c 0,3.21329314 -2.604889,5.81818204 -5.818182,5.81818204 -3.213293,0 -5.818182,-2.6048889 -5.818182,-5.81818204 0,-3.21329316 2.604889,-5.81818196 5.818182,-5.81818196 3.213293,0 5.818182,2.6048888 5.818182,5.81818196 z"
         transform="matrix(-0.18750002,0,0,0.18750002,99.55682,18.897727)" />
      <path
         sodipodi:type="arc"
         style="opacity:0.9;fill:none;stroke:#000000;stroke-width:10.66666508;stroke-miterlimit:4;stroke-opacity:1;stroke-dasharray:none"
         id="path6504"
         sodipodi:cx="87.818184"
         sodipodi:cy="0.54545456"
         sodipodi:rx="5.818182"
         sodipodi:ry="5.818182"
         d="m 93.636366,0.54545456 c 0,3.21329314 -2.604889,5.81818204 -5.818182,5.81818204 -3.213293,0 -5.818182,-2.6048889 -5.818182,-5.81818204 0,-3.21329316 2.604889,-5.81818196 5.818182,-5.81818196 3.213293,0 5.818182,2.6048888 5.818182,5.81818196 z"
         transform="matrix(0.18750002,0,0,-0.18750002,83.534089,49.011364)" />
      <path
         sodipodi:type="arc"
         style="opacity:0.9;fill:none;stroke:#000000;stroke-width:10.66666508;stroke-miterlimit:4;stroke-opacity:1;stroke-dasharray:none"
         id="path6508"
         sodipodi:cx="87.818184"
         sodipodi:cy="0.54545456"
         sodipodi:rx="5.818182"
         sodipodi:ry="5.818182"
         d="m 93.636366,0.54545456 c 0,3.21329314 -2.604889,5.81818204 -5.818182,5.81818204 -3.213293,0 -5.818182,-2.6048889 -5.818182,-5.81818204 0,-3.21329316 2.604889,-5.81818196 5.818182,-5.81818196 3.213293,0 5.818182,2.6048888 5.818182,5.81818196 z"
         transform="matrix(0.18750002,0,0,-0.18750002,93.352271,46.011365)" />
      <path
         sodipodi:type="arc"
         style="opacity:0.9;fill:none;stroke:#000000;stroke-width:10.66666508;stroke-miterlimit:4;stroke-opacity:1;stroke-dasharray:none"
         id="path6510"
         sodipodi:cx="87.818184"
         sodipodi:cy="0.54545456"
         sodipodi:rx="5.818182"
         sodipodi:ry="5.818182"
         d="m 93.636366,0.54545456 c 0,3.21329314 -2.604889,5.81818204 -5.818182,5.81818204 -3.213293,0 -5.818182,-2.6048889 -5.818182,-5.81818204 0,-3.21329316 2.604889,-5.81818196 5.818182,-5.81818196 3.213293,0 5.818182,2.6048888 5.818182,5.81818196 z"
         transform="matrix(0.18750002,0,0,-0.18750002,100.53409,39.011365)" />
      <path
         transform="matrix(-0.18750002,0,0,-0.18750002,106.64773,46.011365)"
         d="m 93.636366,0.54545456 c 0,3.21329314 -2.604889,5.81818204 -5.818182,5.81818204 -3.213293,0 -5.818182,-2.6048889 -5.818182,-5.81818204 0,-3.21329316 2.604889,-5.81818196 5.818182,-5.81818196 3.213293,0 5.818182,2.6048888 5.818182,5.81818196 z"
         sodipodi:ry="5.818182"
         sodipodi:rx="5.818182"
         sodipodi:cy="0.54545456"
         sodipodi:cx="87.818184"
         id="path6514"
         style="opacity:0.9;fill:none;stroke:#000000;stroke-width:10.66666508;stroke-miterlimit:4;stroke-opacity:1;stroke-dasharray:none"
         sodipodi:type="arc" />
      <path
         transform="matrix(-0.18750002,0,0,-0.18750002,99.465911,39.011365)"
         d="m 93.636366,0.54545456 c 0,3.21329314 -2.604889,5.81818204 -5.818182,5.81818204 -3.213293,0 -5.818182,-2.6048889 -5.818182,-5.81818204 0,-3.21329316 2.604889,-5.81818196 5.818182,-5.81818196 3.213293,0 5.818182,2.6048888 5.818182,5.81818196 z"
         sodipodi:ry="5.818182"
         sodipodi:rx="5.818182"
         sodipodi:cy="0.54545456"
         sodipodi:cx="87.818184"
         id="path6516"
         style="opacity:0.9;fill:none;stroke:#000000;stroke-width:10.66666508;stroke-miterlimit:4;stroke-opacity:1;stroke-dasharray:none"
         sodipodi:type="arc" />
      <path
         inkscape:connector-curvature="0"
         id="path6526"
         d="m 100,29 c 0,-15 0,-15 0,-15 l 0,0"
         style="fill:none;stroke:#000000;stroke-width:2.5;stroke-linecap:round;stroke-linejoin:miter;stroke-miterlimit:4;stroke-opacity:1;stroke-dasharray:none" />
      <path
         inkscape:connector-curvature="0"
         id="path6528"
         d="m 100,29 c 10,0 10,0 10,0"
         style="fill:none;stroke:#000000;stroke-width:2.5;stroke-linecap:round;stroke-linejoin:miter;stroke-miterlimit:4;stroke-opacity:1;stroke-dasharray:none" />
    </g>
    <g
       id="g3921"
       inkscape:export-xdpi="80.493912"
       inkscape:export-ydpi="80.493912"
       transform="matrix(1.2716379,0,0,1.2716379,-5.1611205,-12.223706)">
      <path
         sodipodi:open="true"
         sodipodi:end="7.9533349"
         sodipodi:start="6.1539454"
         transform="matrix(-0.20770582,-0.21174592,0.21174592,-0.20770582,19.137178,62.614999)"
         d="m 77.202386,22.865375 c 3.38806,26.069157 -14.998603,49.948951 -41.067761,53.337011 -3.600635,0.467954 -7.24299,0.522387 -10.856,0.162236"
         sodipodi:ry="47.599358"
         sodipodi:rx="47.599358"
         sodipodi:cy="29"
         sodipodi:cx="30"
         id="path3841"
         style="fill:none;stroke:#000000;stroke-width:14.59268188;stroke-linecap:butt;stroke-linejoin:miter;stroke-miterlimit:4;stroke-opacity:1;stroke-dasharray:none"
         sodipodi:type="arc" />
      <path
         sodipodi:open="true"
         sodipodi:end="7.9657926"
         sodipodi:start="6.1490833"
         transform="matrix(-0.20078229,-0.20468773,0.20468773,-0.20078229,19.02163,62.199182)"
         d="m 59.730654,24.988987 c 2.215221,16.419787 -9.299854,31.526445 -25.719641,33.741667 -2.440126,0.329201 -4.9115,0.356747 -7.358357,0.08202"
         sodipodi:ry="30"
         sodipodi:rx="30"
         sodipodi:cy="29"
         sodipodi:cx="30"
         id="path3843"
         style="fill:none;stroke:#000000;stroke-width:12.78443718;stroke-linecap:butt;stroke-linejoin:miter;stroke-miterlimit:4;stroke-opacity:1;stroke-dasharray:none"
         sodipodi:type="arc" />
      <path
         transform="matrix(-0.18001171,-0.18351312,0.18351312,-0.18001171,18.922943,60.958846)"
         sodipodi:open="true"
         sodipodi:end="8.0131397"
         sodipodi:start="6.1512561"
         d="m 44.869649,27.026798 c 1.08977,8.21228 -4.684166,15.753082 -12.896447,16.842851 -1.44534,0.191797 -2.910923,0.171843 -4.350507,-0.05923"
         sodipodi:ry="15"
         sodipodi:rx="15"
         sodipodi:cy="29"
         sodipodi:cx="30"
         id="path3845"
         style="fill:none;stroke:#000000;stroke-width:12.2369318;stroke-linecap:butt;stroke-linejoin:miter;stroke-miterlimit:4;stroke-opacity:1;stroke-dasharray:none"
         sodipodi:type="arc" />
      <path
         transform="matrix(-0.08868367,-0.09040867,0.09040867,-0.08868367,10.294677,65.731748)"
         d="m 50,134 c 0,5.52285 -4.477153,10 -10,10 -5.522847,0 -10,-4.47715 -10,-10 0,-5.52285 4.477153,-10 10,-10 5.522847,0 10,4.47715 10,10 z"
         sodipodi:ry="10"
         sodipodi:rx="10"
         sodipodi:cy="134"
         sodipodi:cx="40"
         id="path3878"
         style="fill:#000000;fill-opacity:1;stroke:none"
         sodipodi:type="arc" />
      <path
         sodipodi:nodetypes="ccc"
         inkscape:connector-curvature="0"
         id="path9181"
         d="m 11.634931,49.209718 7.175849,6.065466 9.443495,-8.37187"
         style="fill:none;stroke:#000000;stroke-width:1.53786182;stroke-linecap:round;stroke-linejoin:round;stroke-miterlimit:4;stroke-opacity:1;stroke-dasharray:none;marker-end:url(#TriangleOutS)" />
    </g>
  </g>
</svg>
